<svg width="24" height="24" viewBox="0 0 24 24" fill="none" xmlns="http://www.w3.org/2000/svg">
<!-- Official Mobile Wallet Adapter icon from solana-mobile/mobile-wallet-adapter -->
<path fill-rule="evenodd" clip-rule="evenodd" d="M7 2.5H17C17.8284 2.5 18.5 3.17157 18.5 4V20C18.5 20.8284 17.8284 21.5 17 21.5H7C6.17157 21.5 5.5 20.8284 5.5 20V4C5.5 3.17157 6.17157 2.5 7 2.5ZM3 4C3 1.79086 4.79086 0 7 0H17C19.2091 0 21 1.79086 21 4V20C21 22.2091 19.2091 24 17 24H7C4.79086 24 3 22.2091 3 20V4ZM11 4.61538C10.4477 4.61538 10 5.0631 10 5.61538V6.38462C10 6.9369 10.4477 7.38462 11 7.38462H13C13.5523 7.38462 14 6.9369 14 6.38462V5.61538C14 5.0631 13.5523 4.61538 13 4.61538H11Z" fill="#DCB8FF"/>
</svg>
